HIERARCHY
ROOT Hips
{
  OFFSET 1.44925e-005 102.336 -0.101585
  CHANNELS 6 Xposition Yposition Zposition Zrotation Xrotation Yrotation
  JOINT LeftUpLeg
  {
    OFFSET 8.9458 -8.66707 0.101652
    CHANNELS 3 Zrotation Xrotation Yrotation
    JOINT LeftLeg
    {
      OFFSET 0 -44.4227 1.3727
      CHANNELS 3 Zrotation Xrotation Yrotation
      JOINT LeftFoot
      {
        OFFSET -0.253549 -42.0924 -1.46059
        CHANNELS 3 Zrotation Xrotation Yrotation
        JOINT LeftToes
        {
          OFFSET -0.04 -4.41509 8.4991
          CHANNELS 3 Zrotation Xrotation Yrotation
          End Site
          {
            OFFSET 0.08 -0.047448 9.77979
          }
        }
      }
    }
  }
  JOINT Spine
  {
    OFFSET 0 11.8905 0
    CHANNELS 3 Zrotation Xrotation Yrotation
    JOINT Spine1
    {
      OFFSET 0 25.6574 0.127663
      CHANNELS 3 Zrotation Xrotation Yrotation
      JOINT RightShoulder
      {
        OFFSET -8.99 -0.362252 -0.22
        CHANNELS 3 Zrotation Xrotation Yrotation
        JOINT RightArm
        {
          OFFSET -10.2827 -0.00338 0.322123
          CHANNELS 3 Zrotation Xrotation Yrotation
          JOINT RightForeArm
          {
            OFFSET -26.364 0.099144 -1.42434
            CHANNELS 3 Zrotation Xrotation Yrotation
            JOINT RightHand
            {
              OFFSET -22.0324 0.085362 1.02216
              CHANNELS 3 Zrotation Xrotation Yrotation
              End Site
              {
                OFFSET -13.3284 -0.6 1.50291
              }
            }
          }
        }
      }
      JOINT LeftShoulder1
      {
        OFFSET 8.99 -0.362252 -0.22
        CHANNELS 3 Zrotation Xrotation Yrotation
        JOINT LeftArm
        {
          OFFSET 10.2827 -0.00337999 0.322123
          CHANNELS 3 Zrotation Xrotation Yrotation
          JOINT LeftForeArm
          {
            OFFSET 26.2597 0.099144 -1.42434
            CHANNELS 3 Zrotation Xrotation Yrotation
            JOINT LeftHand
            {
              OFFSET 22.0902 0.085362 1.02216
              CHANNELS 3 Zrotation Xrotation Yrotation
              End Site
              {
                OFFSET 13.419 -0.6 1.50291
              }
            }
          }
        }
      }
      JOINT Head
      {
        OFFSET 0 8.73416 0.011341
        CHANNELS 3 Zrotation Xrotation Yrotation
        End Site
        {
          OFFSET -0.29 12.7742 2.51395
        }
      }
    }
  }
  JOINT RightUpLeg
  {
    OFFSET -8.9458 -8.66707 0.101652
    CHANNELS 3 Zrotation Xrotation Yrotation
    JOINT RightLeg
    {
      OFFSET 0 -44.4227 1.3727
      CHANNELS 3 Zrotation Xrotation Yrotation
      JOINT RightFoot
      {
        OFFSET 0.253549 -42.0924 -1.46059
        CHANNELS 3 Zrotation Xrotation Yrotation
        JOINT RightToes
        {
          OFFSET 0.04 -4.41509 8.4991
          CHANNELS 3 Zrotation Xrotation Yrotation
          End Site
          {
            OFFSET -0.08 -0.137448 9.77979
          }
        }
      }
    }
  }
}
MOTION
Frames:	7
Frame Time:	0.0333333
83.71 97.3992 9.61684 -7.78301 4.50766 -89.1325 2.89803 12.2999 4.81721 1.24845 37.2263 19.9314 -17.1233 -22.5397 -2.19744 -1.3927e-009 8.75205e-006 -1.47609e-008 12.3106 8.52883 -2.33233 -1.53182 -0.125024 -0.990299 29.6896 1.48779 0.0491178 61.0306 -25.7226 39.9933 16.7563 55.1812 -13.9906 -12.01 9.45183 -0.839814 -33.9795 2.53031 -2.81042 -39.382 -11.158 -39.5013 -10.712 55.406 -5.01273 5.82328 9.61819 -0.917488 -3.03347 -0.868124 -3.10459 4.20125 -16.8647 -6.22004 1.36137 24.4326 -19.7643 0.618128 -6.78673 -0.178775 0.0462048 0.000530889 0.662642 
81.1016 97.3832 9.07544 -7.71713 5.24628 -89.9588 4.65842 5.54882 5.03859 1.5627 51.202 20.4743 -14.8555 -12.7301 -0.648286 -1.3927e-009 8.75205e-006 -1.47609e-008 15.2181 9.35807 -1.93773 -2.82731 -0.239792 0.16478 27.5478 1.42964 0.0968843 63.4236 -20.091 50.5666 16.3416 53.899 -12.3273 -12.7394 9.37245 -0.344513 -37.676 2.93387 -3.18624 -36.0514 -11.3564 -25.2676 -8.89611 52.5714 -7.44208 5.82328 9.61819 -0.917488 -3.07952 -2.04045 -3.19848 5.72498 -16.3645 -5.30499 1.03904 26.4737 -19.2865 -0.8698 -8.75488 -0.186281 0.0462048 0.000530889 0.662642 
78.6718 97.2823 8.53767 -8.1874 5.64985 -88.8708 5.97782 -2.0239 3.33726 2.22259 64.783 19.4957 -10.3706 -5.01111 0.273875 -1.3927e-009 8.75205e-006 -1.47609e-008 17.8437 10.3273 -2.08498 -4.34088 0.068698 1.00774 25.1893 1.32576 0.0262239 63.6894 -16.1907 58.7043 12.6565 49.8362 -5.60014 -13.8256 9.249 0.33614 -39.7727 3.16322 -3.36313 -34.9879 -16.6161 -14.0125 -12.9091 55.7722 -1.83745 5.82328 9.61819 -0.917488 -1.78797 -3.61551 -4.67433 6.16352 -14.8488 -5.15832 1.783 27.8985 -20.6187 -0.851791 -11.5272 -0.225295 0.0462048 0.000530889 0.662642 
76.0988 97.5084 8.08532 -8.65308 5.89433 -87.9522 6.37359 -8.87664 1.5898 3.71281 75.6168 16.5318 -7.88158 -3.81896 0.280291 -1.3927e-009 8.75205e-006 -1.47609e-008 20.6031 11.0176 -1.83864 -6.90748 0.0850772 2.29454 23.3984 1.19601 -0.206489 61.6796 -14.564 65.3513 9.91484 45.8304 0.285914 -14.802 9.11324 1.06506 -41.1539 3.29674 -3.43055 -31.6971 -20.9937 -3.63481 -19.5641 61.0779 7.06728 5.82328 9.61819 -0.917488 -0.167947 -4.52045 -7.34189 6.43987 -12.6083 -4.67107 2.77562 27.8985 -22.1381 -0.316514 -13.0847 -0.223527 0.0462048 0.000530889 0.662642 
73.3605 98.1071 7.66367 -8.72516 5.56137 -88.2521 5.88088 -14.986 0.971972 7.79818 83.4335 10.9061 -7.58779 -6.48457 0.0989994 -1.3927e-009 8.75205e-006 -1.47609e-008 22.0648 11.6556 -1.08193 -9.44726 -0.770344 3.70648 21.9405 1.09473 -0.402873 58.7389 -14.2583 71.1037 8.20985 44.1141 4.35279 -15.2258 9.02067 1.61994 -42.4756 3.43075 -3.50288 -26.2082 -20.6779 8.51848 -21.5256 64.2998 9.29377 5.82328 9.61819 -0.917488 1.00454 -4.37355 -9.67859 6.42118 -10.1329 -3.92844 3.06384 26.8172 -22.495 0.122836 -14.108 -0.207566 0.0462048 0.000530889 0.662642 
70.6059 98.6416 7.22769 -8.68735 4.57763 -88.8463 4.75087 -20.6699 0.717736 37.6591 88.5789 -19.7397 -8.24187 -8.65092 -0.034904 -1.3927e-009 8.75205e-006 -1.47609e-008 21.9706 12.2963 -0.319173 -11.0623 -1.91573 4.74033 20.3851 1.02483 -0.49495 55.8725 -14.4859 75.706 6.61028 42.336 7.6504 -15.1751 8.96984 2.05661 -42.8855 3.48362 -3.54691 -21.715 -18.1223 21.442 -16.0322 63.0898 2.40746 5.82328 9.61819 -0.917488 1.77743 -3.831 -11.2254 5.75039 -7.68617 -4.02596 2.88137 25.8111 -21.6756 0.522049 -15.6029 -0.187885 0.0462048 0.000530889 0.662642 
67.8665 98.9715 6.80174 -8.90415 3.5328 -89.3201 3.37849 -25.6122 0.243011 157.521 87.7376 -139.536 -8.46431 -9.51576 -0.0965029 -1.3927e-009 8.75205e-006 -1.47609e-008 21.4541 12.6941 0.459198 -12.2779 -2.42297 5.68279 18.7198 0.928707 -0.691642 53.5784 -15.4695 79.1388 5.24123 38.836 10.4621 -15.0313 8.92792 2.47579 -41.7049 3.35804 -3.47198 -19.095 -16.4551 32.6634 -11.1536 56.7183 -3.51468 5.82328 9.61819 -0.917488 2.24555 -3.63654 -12.7226 4.78943 -5.12655 -5.06933 2.72629 25.135 -20.0471 0.762061 -17.0899 -0.1712 0.0462048 0.000530889 0.662642 
